<svg width="66" height="100" viewBox="0 0 66 100" fill="none" xmlns="http://www.w3.org/2000/svg">
<path d="M16.4949 99.9994C25.6026 99.9994 32.9899 92.5382 32.9899 83.3395V66.6797H16.4949C7.38731 66.6797 0 74.1408 0 83.3395C0 92.5382 7.38731 99.9994 16.4949 99.9994Z" fill="#0ACF83"/>
<path d="M0 49.9997C0 40.801 7.38731 33.3398 16.4949 33.3398H32.9899V66.68H16.4949C7.38731 66.6595 0 59.1984 0 49.9997Z" fill="#A259FF"/>
<path d="M0 16.6599C0 7.46116 7.38731 0 16.4949 0H32.9899V33.3401H16.4949C7.38731 33.3401 0 25.8585 0 16.6599Z" fill="#F24E1E"/>
<path d="M33.01 0H49.505C58.6126 0 65.9999 7.46116 65.9999 16.6599C65.9999 25.8585 58.6126 33.3197 49.505 33.3197H33.01V0V0Z" fill="#FF7262"/>
<path d="M65.9999 49.9997C65.9999 59.1984 58.6126 66.6596 49.505 66.6596C40.3973 66.6596 33.01 59.1984 33.01 49.9997C33.01 40.801 40.3973 33.3398 49.505 33.3398C58.6126 33.3398 65.9999 40.801 65.9999 49.9997Z" fill="#1ABCFE"/>
</svg>
