<svg width="91" height="100" viewBox="0 0 91 100" fill="none" xmlns="http://www.w3.org/2000/svg">
<path d="M0.851074 0L7.17751 87.5198L45.8511 100L84.5246 87.5198L90.8511 0H0.851074Z" fill="#FF7816"/>
<path d="M90.8508 0L84.5244 87.5198L45.8508 100V0H90.8508Z" fill="#FF4B00"/>
<path d="M73.9613 26.5625H29.7369L30.8108 41.2109H72.8874L70.3206 76.6792L45.851 84.7069L21.3814 76.6792L20.546 64.8438H32.4824L32.721 68.0664L45.851 72.3434L58.981 68.0664L60.055 52.9297H19.6508L16.9053 14.8438H74.7967L73.9613 26.5625Z" fill="#ECECF1"/>
<path d="M72.8872 41.2109L70.3204 76.6792L45.8508 84.7069V72.3434L58.9808 68.0664L60.0548 52.9297H45.8508V41.2109H72.8872Z" fill="#E2E2E7"/>
<path d="M74.7966 14.8438L73.9612 26.5625H45.8508V14.8438H74.7966Z" fill="#E2E2E7"/>
</svg>
