<svg width="100" height="100" viewBox="0 0 100 100" fill="none" xmlns="http://www.w3.org/2000/svg">
<path d="M50 100C77.6142 100 100 77.6142 100 50C100 22.3858 77.6142 0 50 0C22.3858 0 0 22.3858 0 50C0 77.6142 22.3858 100 50 100Z" fill="#6E64C3"/>
<path d="M79.1425 25.2748L65.3444 19.6992L41.0397 43.2502L26.3556 32.1105L20.7856 34.8955L20.8571 64.324L56.1559 99.6228C80.8655 96.5887 99.9999 75.5301 99.9999 50.0004C99.9999 48.6436 99.9438 47.2998 99.8378 45.9701L79.1425 25.2748Z" fill="#5046AF"/>
<path d="M79.1425 25.2748L65.3444 19.6992L41.0397 43.2502L26.3556 32.1105L20.7856 34.8955L20.8571 64.324L26.4271 67.109L41.1112 55.9693L65.4159 79.5203L79.2139 73.9447L79.1425 25.2748ZM27.8196 55.8428V43.377L34.7104 49.6098H34.7819L27.8196 55.8428ZM63.9602 59.9885L50.1071 49.6098H50.0356L63.9602 39.2311V59.9885Z" fill="white"/>
</svg>
