<svg width="70" height="40" viewBox="0 0 70 40" fill="none" xmlns="http://www.w3.org/2000/svg">
<path d="M58.0874 22.9371C56.9557 21.5371 57.2795 20.9143 58.0874 19.6629C58.102 19.6486 67.4444 7.00286 68.407 2.71429L68.4128 2.71143C68.8911 1.14857 68.4128 0 66.0998 0H58.4462C56.4978 0 55.5994 0.985714 55.1182 2.08857C55.1182 2.08857 51.2214 11.2257 45.7087 17.1486C43.9294 18.86 43.1069 19.4086 42.1356 19.4086C41.6573 19.4086 40.9135 18.86 40.9135 17.2971V2.71143C40.9135 0.837142 40.3681 0 38.7551 0H26.7205C25.4984 0 24.7721 0.874286 24.7721 1.68857C24.7721 3.46571 27.5285 3.87429 27.8143 8.87429V19.7229C27.8143 22.1 27.3739 22.5371 26.3967 22.5371C23.795 22.5371 17.4802 13.3629 13.738 2.86286C12.9825 0.825714 12.2446 0.00285694 10.2816 0.00285694H2.62509C0.440432 0.00285694 0 0.988571 0 2.09143C0 4.04 2.60176 13.7286 12.0988 26.5286C18.4281 35.2657 27.3418 40 35.4504 40C40.3243 40 40.9193 38.9486 40.9193 37.14C40.9193 28.7914 40.4789 28.0029 42.9202 28.0029C44.0519 28.0029 46.0003 28.5514 50.5505 32.7657C55.7511 37.7629 56.6057 40 59.5167 40H67.1702C69.352 40 70.4574 38.9486 69.8216 36.8743C68.3661 32.5114 58.5308 23.5371 58.0874 22.9371Z" fill="black"/>
</svg>
